<svg width="205" height="25" viewBox="0 0 205 25" fill="none" xmlns="http://www.w3.org/2000/svg">
<g clip-path="url(#clip0_99_765)">
<path fill-rule="evenodd" clip-rule="evenodd" d="M29.2061 24.4799H23.9361C23.824 24.4805 23.712 24.4728 23.6011 24.4569C23.4877 24.4403 23.3861 24.4143 23.2961 24.3789C23.1858 24.3373 23.0853 24.2733 23.0011 24.1909C22.916 24.1034 22.8505 23.9987 22.8091 23.8839C22.7444 23.7146 22.7121 23.5053 22.7121 23.2559V1.22392C22.7115 1.11184 22.7192 0.999871 22.7351 0.888921C22.7517 0.775588 22.7781 0.673921 22.8141 0.583921C22.8553 0.473729 22.919 0.373285 23.0011 0.288921C23.0889 0.203715 23.1939 0.138254 23.3091 0.0969209C23.4784 0.0322543 23.6874 -7.90784e-05 23.9361 -7.90784e-05H29.2061C29.3181 -0.000653276 29.4301 0.00703422 29.5411 0.0229209C29.6544 0.0395876 29.7564 0.0659209 29.8471 0.101921C29.9569 0.143336 30.057 0.207 30.1411 0.288921C30.2266 0.376646 30.2924 0.481663 30.3341 0.596921C30.3981 0.766254 30.4301 0.975254 30.4301 1.22392V8.60192H36.1081V1.22392C36.1075 1.11184 36.1152 0.999871 36.1311 0.888921C36.1477 0.775588 36.1741 0.673921 36.2101 0.583921C36.2513 0.473729 36.315 0.373285 36.3971 0.288921C36.4849 0.203715 36.5899 0.138254 36.7051 0.0969209C36.8744 0.0322543 37.0834 -7.90784e-05 37.3321 -7.90784e-05H42.6021C42.7141 -0.000653276 42.8261 0.00703422 42.9371 0.0229209C43.0504 0.0395876 43.1524 0.0659209 43.2431 0.101921C43.3529 0.143336 43.453 0.207 43.5371 0.288921C43.6226 0.376646 43.6884 0.481663 43.7301 0.596921C43.7941 0.766254 43.8261 0.975254 43.8261 1.22392V23.2559C43.8266 23.368 43.8189 23.48 43.8031 23.5909C43.7864 23.7043 43.7604 23.8063 43.7251 23.8969C43.6833 24.0068 43.6193 24.1069 43.5371 24.1909C43.4496 24.2764 43.345 24.3422 43.2301 24.3839C43.0607 24.4479 42.8514 24.4799 42.6021 24.4799H37.3321C37.22 24.4805 37.108 24.4728 36.9971 24.4569C36.8837 24.4403 36.7821 24.4143 36.6921 24.3789C36.5818 24.3373 36.4813 24.2733 36.3971 24.1909C36.312 24.1034 36.2465 23.9987 36.2051 23.8839C36.1404 23.7146 36.1081 23.5053 36.1081 23.2559V15.7079H30.4301V23.2559C30.4306 23.368 30.4229 23.48 30.4071 23.5909C30.3904 23.7043 30.3644 23.8063 30.3291 23.8969C30.2873 24.0068 30.2233 24.1069 30.1411 24.1909C30.0536 24.2764 29.949 24.3422 29.8341 24.3839C29.6647 24.4479 29.4554 24.4799 29.2061 24.4799ZM11.9681 24.4799H1.22405C1.11197 24.4805 1 24.4728 0.889052 24.4569C0.775719 24.4403 0.674052 24.4143 0.584052 24.3789C0.473774 24.3373 0.373324 24.2733 0.289052 24.1909C0.203966 24.1034 0.138512 23.9987 0.0970524 23.8839C0.0323857 23.7146 5.23526e-05 23.5053 5.23526e-05 23.2559V19.2779C-0.000521845 19.1658 0.00716565 19.0539 0.0230524 18.9429C0.039719 18.8296 0.0660524 18.7279 0.102052 18.6379C0.143345 18.5277 0.207016 18.4273 0.289052 18.3429C0.376872 18.2577 0.481883 18.1923 0.597052 18.1509C0.766386 18.0863 0.975386 18.0539 1.22405 18.0539H10.3701C10.46 18.0549 10.5497 18.0444 10.6371 18.0229C10.7948 17.9851 10.9347 17.894 11.0331 17.7649C11.1528 17.6074 11.2265 17.4198 11.2461 17.2229C11.2516 17.1714 11.2543 17.1197 11.2541 17.0679C11.2541 16.6826 11.1804 16.3993 11.0331 16.2179C10.8897 16.0413 10.6757 15.9399 10.3911 15.9139C10.3841 15.9132 10.3771 15.9125 10.3701 15.9119L5.27005 15.1979C4.68689 15.118 4.11242 14.9841 3.55405 14.7979C2.86939 14.5653 2.26605 14.2559 1.74405 13.8699C1.64178 13.7946 1.54205 13.7159 1.44505 13.6339C0.697719 13.0013 0.240386 12.0406 0.0730524 10.7519C0.0229715 10.3546 -0.00141253 9.95441 5.23526e-05 9.55392V5.98392C-0.00556724 5.3676 0.0687182 4.75315 0.221052 4.15592C0.477634 3.13232 1.05558 2.21791 1.87005 1.54692C2.5379 1.00519 3.30982 0.60629 4.13805 0.374921C4.75005 0.195588 5.42172 0.0805876 6.15305 0.0299209C6.44762 0.0097628 6.7428 -0.000243128 7.03805 -7.90784e-05H16.5581C16.6701 -0.000653276 16.7821 0.00703422 16.8931 0.0229209C17.0064 0.0395876 17.1084 0.0659209 17.1991 0.101921C17.3089 0.143336 17.409 0.207 17.4931 0.288921C17.5786 0.376646 17.6444 0.481663 17.6861 0.596921C17.7501 0.766254 17.7821 0.975254 17.7821 1.22392V5.26992C17.7826 5.382 17.7749 5.49397 17.7591 5.60492C17.7424 5.71825 17.7164 5.82025 17.6811 5.91092C17.6393 6.02084 17.5753 6.12094 17.4931 6.20492C17.4056 6.29037 17.301 6.35617 17.1861 6.39792C17.0167 6.46192 16.8074 6.49392 16.5581 6.49392H8.63605C8.54197 6.49308 8.44818 6.50451 8.35705 6.52792C8.19954 6.56781 8.05898 6.65719 7.95605 6.78292C7.8429 6.9219 7.76809 7.08807 7.73905 7.26492C7.72474 7.34714 7.71771 7.43046 7.71805 7.51392C7.71704 7.63992 7.73353 7.76546 7.76705 7.88692C7.80513 8.023 7.86932 8.15037 7.95605 8.26192C8.08374 8.42638 8.2667 8.539 8.47105 8.57892C8.52546 8.59034 8.58059 8.59802 8.63605 8.60192L13.7021 9.28192C14.303 9.36426 14.8947 9.5039 15.4691 9.69892C16.1697 9.94159 16.7871 10.2646 17.3211 10.6679C17.3968 10.7254 17.4712 10.7848 17.5441 10.8459C18.3134 11.4899 18.7791 12.4723 18.9411 13.7929C18.9858 14.1689 19.0075 14.5473 19.0061 14.9259V18.4959C19.0117 19.1124 18.9367 19.7269 18.7831 20.3239C18.5228 21.3496 17.9394 22.2644 17.1191 22.9329C16.0111 23.8416 14.5471 24.3499 12.7271 24.4579C12.4743 24.4728 12.2212 24.4801 11.9681 24.4799ZM164.866 24.4799H159.63C159.518 24.4805 159.406 24.4728 159.295 24.4569C159.182 24.4403 159.08 24.4143 158.99 24.3789C158.88 24.3373 158.779 24.2733 158.695 24.1909C158.61 24.1034 158.545 23.9987 158.503 23.8839C158.438 23.7146 158.406 23.5053 158.406 23.2559V1.22392C158.405 1.11184 158.413 0.999871 158.429 0.888921C158.446 0.775588 158.472 0.673921 158.508 0.583921C158.549 0.473729 158.613 0.373285 158.695 0.288921C158.783 0.203715 158.888 0.138254 159.003 0.0969209C159.172 0.0322543 159.381 -7.90784e-05 159.63 -7.90784e-05H170.952C171.539 -0.00279056 172.126 0.0302707 172.709 0.0989209C174.318 0.296254 175.483 0.790254 176.205 1.58092C176.916 2.36642 177.382 3.34288 177.545 4.38992C177.617 4.81549 177.652 5.24638 177.65 5.67792V7.24192C177.65 8.06125 177.545 8.77592 177.335 9.38592C177.302 9.48282 177.265 9.57855 177.225 9.67292C177.089 9.99789 176.89 10.2925 176.639 10.5394C176.388 10.7864 176.09 10.9807 175.763 11.1109C175.757 11.1133 175.752 11.1156 175.746 11.1179C176.315 11.1755 176.87 11.3329 177.385 11.5829C177.894 11.8358 178.348 12.1861 178.721 12.6139C179.476 13.4706 179.856 14.6069 179.86 16.0229C179.86 16.0313 179.86 16.0396 179.86 16.0479V23.2559C179.861 23.368 179.853 23.48 179.837 23.5909C179.82 23.7043 179.794 23.8063 179.759 23.8969C179.717 24.0068 179.653 24.1069 179.571 24.1909C179.484 24.2764 179.379 24.3422 179.264 24.3839C179.095 24.4479 178.885 24.4799 178.636 24.4799H173.366C173.254 24.4805 173.142 24.4728 173.031 24.4569C172.918 24.4403 172.816 24.4143 172.726 24.3789C172.616 24.3373 172.515 24.2733 172.431 24.1909C172.346 24.1034 172.281 23.9987 172.239 23.8839C172.174 23.7146 172.142 23.5053 172.142 23.2559V18.0539C172.143 17.9236 172.135 17.7933 172.119 17.6639C172.08 17.3586 171.992 17.1203 171.853 16.9489C171.708 16.7703 171.483 16.6586 171.178 16.6139C171.069 16.5987 170.96 16.5914 170.85 16.5919H166.09V23.2559C166.091 23.368 166.083 23.48 166.067 23.5909C166.05 23.7043 166.024 23.8063 165.989 23.8969C165.947 24.0068 165.883 24.1069 165.801 24.1909C165.714 24.2764 165.609 24.3422 165.494 24.3839C165.325 24.4479 165.115 24.4799 164.866 24.4799ZM63.6821 24.4799H49.1981C49.086 24.4805 48.974 24.4728 48.8631 24.4569C48.7497 24.4403 48.6481 24.4143 48.5581 24.3789C48.4478 24.3373 48.3473 24.2733 48.2631 24.1909C48.178 24.1034 48.1125 23.9987 48.0711 23.8839C48.0064 23.7146 47.9741 23.5053 47.9741 23.2559V19.2099C47.9735 19.0978 47.9812 18.9859 47.9971 18.8749C48.0137 18.7616 48.0401 18.6599 48.0761 18.5699C48.1173 18.4597 48.181 18.3593 48.2631 18.2749C48.3509 18.1897 48.4559 18.1243 48.5711 18.0829C48.7404 18.0183 48.9494 17.9859 49.1981 17.9859H52.5641V6.56192H49.1981C49.086 6.56249 48.974 6.55481 48.8631 6.53892C48.7497 6.52225 48.6481 6.49625 48.5581 6.46092C48.4478 6.41933 48.3473 6.35532 48.2631 6.27292C48.178 6.18539 48.1125 6.08073 48.0711 5.96592C48.0064 5.79659 47.9741 5.58725 47.9741 5.33792V1.22392C47.9735 1.11184 47.9812 0.999871 47.9971 0.888921C48.0137 0.775588 48.0401 0.673921 48.0761 0.583921C48.1173 0.473729 48.181 0.373285 48.2631 0.288921C48.3509 0.203715 48.4559 0.138254 48.5711 0.0969209C48.7404 0.0322543 48.9494 -7.90784e-05 49.1981 -7.90784e-05H63.6821C63.7941 -0.000653276 63.9061 0.00703422 64.0171 0.0229209C64.1304 0.0395876 64.2324 0.0659209 64.3231 0.101921C64.4329 0.143336 64.533 0.207 64.6171 0.288921C64.7026 0.376646 64.7684 0.481663 64.8101 0.596921C64.8741 0.766254 64.9061 0.975254 64.9061 1.22392V5.33792C64.9066 5.45 64.8989 5.56197 64.8831 5.67292C64.8664 5.78625 64.8404 5.88825 64.8051 5.97892C64.7633 6.08884 64.6993 6.18894 64.6171 6.27292C64.5296 6.35837 64.4249 6.42417 64.3101 6.46592C64.1407 6.52992 63.9314 6.56192 63.6821 6.56192H60.3841V17.9859H63.6821C63.7941 17.9853 63.9061 17.993 64.0171 18.0089C64.1304 18.0256 64.2324 18.0519 64.3231 18.0879C64.4329 18.1293 64.533 18.193 64.6171 18.2749C64.7026 18.3626 64.7684 18.4677 64.8101 18.5829C64.8741 18.7523 64.9061 18.9613 64.9061 19.2099V23.2559C64.9066 23.368 64.8989 23.48 64.8831 23.5909C64.8664 23.7043 64.8404 23.8063 64.8051 23.8969C64.7633 24.0068 64.6993 24.1069 64.6171 24.1909C64.5296 24.2764 64.4249 24.3422 64.3101 24.3839C64.1407 24.4479 63.9314 24.4799 63.6821 24.4799ZM128.52 24.4799H120.224C119.483 24.4835 118.742 24.4388 118.007 24.3459C116.297 24.1206 114.951 23.6129 113.97 22.8229C113.952 22.8087 113.935 22.7944 113.917 22.7799C113.089 22.085 112.49 21.1556 112.2 20.1139C112.023 19.5239 111.916 18.8719 111.877 18.1579C111.866 17.9534 111.86 17.7487 111.86 17.5439V6.96992C111.86 5.26059 112.221 3.86992 112.942 2.79792C113.214 2.39313 113.542 2.02914 113.917 1.71692C114.515 1.23056 115.197 0.856532 115.928 0.612921C117.099 0.204254 118.531 -7.90784e-05 120.224 -7.90784e-05H128.52C128.632 -0.000653276 128.744 0.00703422 128.855 0.0229209C128.968 0.0395876 129.07 0.0659209 129.161 0.101921C129.271 0.143336 129.371 0.207 129.455 0.288921C129.541 0.376646 129.606 0.481663 129.648 0.596921C129.712 0.766254 129.744 0.975254 129.744 1.22392V5.33792C129.745 5.45 129.737 5.56197 129.721 5.67292C129.704 5.78625 129.678 5.88825 129.643 5.97892C129.601 6.08884 129.537 6.18894 129.455 6.27292C129.368 6.35837 129.263 6.42417 129.148 6.46592C128.979 6.52992 128.769 6.56192 128.52 6.56192H121.686C120.988 6.56192 120.469 6.70192 120.129 6.98192C120.127 6.98358 120.124 6.98525 120.122 6.98692C119.903 7.17211 119.748 7.42212 119.68 7.70092C119.641 7.84825 119.618 8.00992 119.613 8.18592C119.612 8.21125 119.612 8.23658 119.612 8.26192V16.3539C119.612 16.7466 119.694 17.0656 119.857 17.3109C119.929 17.4197 120.019 17.5157 120.122 17.5949C120.261 17.6986 120.416 17.779 120.581 17.8329C120.879 17.9349 121.247 17.9859 121.686 17.9859H128.52C128.632 17.9853 128.744 17.993 128.855 18.0089C128.968 18.0256 129.07 18.0519 129.161 18.0879C129.271 18.1293 129.371 18.193 129.455 18.2749C129.541 18.3626 129.606 18.4677 129.648 18.5829C129.712 18.7523 129.744 18.9613 129.744 19.2099V23.2559C129.745 23.368 129.737 23.48 129.721 23.5909C129.704 23.7043 129.678 23.8063 129.643 23.8969C129.601 24.0068 129.537 24.1069 129.455 24.1909C129.368 24.2764 129.263 24.3422 129.148 24.3839C128.979 24.4479 128.769 24.4799 128.52 24.4799ZM75.5821 24.4799H70.312C70.2 24.4805 70.088 24.4728 69.9771 24.4569C69.8637 24.4403 69.762 24.4143 69.6721 24.3789C69.5618 24.3373 69.4613 24.2733 69.3771 24.1909C69.292 24.1034 69.2265 23.9987 69.1851 23.8839C69.1204 23.7146 69.0881 23.5053 69.0881 23.2559V1.22392C69.0875 1.11184 69.0952 0.999871 69.1111 0.888921C69.1277 0.775588 69.1541 0.673921 69.1901 0.583921C69.2313 0.473729 69.295 0.373285 69.3771 0.288921C69.4649 0.203715 69.5699 0.138254 69.6851 0.0969209C69.8544 0.0322543 70.0634 -7.90784e-05 70.312 -7.90784e-05H85.4761C85.5881 -0.000653276 85.7001 0.00703422 85.8111 0.0229209C85.9244 0.0395876 86.0264 0.0659209 86.1171 0.101921C86.2269 0.143336 86.327 0.207 86.4111 0.288921C86.4966 0.376646 86.5624 0.481663 86.604 0.596921C86.6681 0.766254 86.7001 0.975254 86.7001 1.22392V5.26992C86.7006 5.382 86.6929 5.49397 86.6771 5.60492C86.6604 5.71825 86.6344 5.82025 86.5991 5.91092C86.5573 6.02084 86.4933 6.12094 86.4111 6.20492C86.3236 6.29037 86.2189 6.35617 86.104 6.39792C85.9347 6.46192 85.7254 6.49392 85.4761 6.49392H76.8061V10.0299H82.7221C82.8341 10.0293 82.9461 10.037 83.0571 10.0529C83.1704 10.0696 83.2724 10.0959 83.3631 10.1319C83.4729 10.1733 83.573 10.237 83.6571 10.3189C83.7426 10.4066 83.8084 10.5117 83.8501 10.6269C83.9141 10.7963 83.9461 11.0053 83.9461 11.2539V15.3339C83.9466 15.446 83.9389 15.558 83.923 15.6689C83.9064 15.7823 83.8804 15.8843 83.8451 15.9749C83.8033 16.0848 83.7393 16.1849 83.6571 16.2689C83.5696 16.3544 83.465 16.4202 83.3501 16.4619C83.1807 16.5259 82.9714 16.5579 82.7221 16.5579H76.8061V23.2559C76.8066 23.368 76.7989 23.48 76.7831 23.5909C76.7664 23.7043 76.7404 23.8063 76.7051 23.8969C76.6633 24.0068 76.5993 24.1069 76.5171 24.1909C76.4296 24.2764 76.325 24.3422 76.2101 24.3839C76.0407 24.4479 75.8314 24.4799 75.5821 24.4799ZM140.522 18.4959V23.2559C140.523 23.368 140.515 23.48 140.499 23.5909C140.482 23.7043 140.456 23.8063 140.421 23.8969C140.379 24.0068 140.315 24.1069 140.233 24.1909C140.146 24.2764 140.041 24.3422 139.926 24.3839C139.757 24.4479 139.547 24.4799 139.298 24.4799H134.3C134.188 24.4805 134.076 24.4728 133.965 24.4569C133.852 24.4403 133.75 24.4143 133.66 24.3789C133.55 24.3373 133.449 24.2733 133.365 24.1909C133.28 24.1034 133.215 23.9987 133.173 23.8839C133.108 23.7146 133.076 23.5053 133.076 23.2559V14.2799C133.077 13.962 133.098 13.6444 133.138 13.3289C133.191 12.8963 133.278 12.4313 133.399 11.9339C133.486 11.5792 133.584 11.227 133.692 10.8779C133.882 10.2559 134.119 9.57659 134.402 8.83992L137.36 1.12192C137.41 0.977431 137.476 0.839184 137.558 0.709921C137.668 0.534193 137.815 0.384688 137.989 0.271921C138.135 0.180762 138.294 0.113575 138.461 0.0729209C138.65 0.0242543 138.861 -7.90784e-05 139.094 -7.90784e-05H148.24C148.612 -7.90784e-05 148.929 0.0675876 149.191 0.202921C149.232 0.224052 149.272 0.247077 149.311 0.271921C149.497 0.392641 149.652 0.554903 149.765 0.745921C149.836 0.864931 149.895 0.990926 149.94 1.12192L152.898 8.83992C153.059 9.25826 153.213 9.67967 153.358 10.1039C153.585 10.7713 153.766 11.3813 153.901 11.9339C153.984 12.2733 154.054 12.6159 154.11 12.9609C154.165 13.3029 154.2 13.6263 154.215 13.9309C154.221 14.0472 154.224 14.1635 154.224 14.2799V23.2559C154.225 23.368 154.217 23.48 154.201 23.5909C154.184 23.7043 154.158 23.8063 154.123 23.8969C154.081 24.0068 154.017 24.1069 153.935 24.1909C153.848 24.2764 153.743 24.3422 153.628 24.3839C153.459 24.4479 153.249 24.4799 153 24.4799H147.866C147.59 24.4799 147.358 24.4443 147.17 24.3729C147.057 24.3317 146.953 24.27 146.863 24.1909C146.758 24.0952 146.679 23.9754 146.631 23.8419C146.57 23.6799 146.54 23.4846 146.54 23.2559V18.4959H140.522ZM101.66 24.4799H96.1521C96.04 24.4805 95.928 24.4728 95.8171 24.4569C95.7037 24.4403 95.6021 24.4143 95.5121 24.3789C95.4018 24.3373 95.3013 24.2733 95.2171 24.1909C95.132 24.1034 95.0665 23.9987 95.0251 23.8839C94.9604 23.7146 94.9281 23.5053 94.9281 23.2559V6.56192H89.9301C89.818 6.56249 89.706 6.55481 89.5951 6.53892C89.4817 6.52225 89.3801 6.49625 89.2901 6.46092C89.1798 6.41933 89.0793 6.35532 88.9951 6.27292C88.91 6.18539 88.8445 6.08073 88.8031 5.96592C88.7384 5.79659 88.7061 5.58725 88.7061 5.33792V1.22392C88.7055 1.11184 88.7132 0.999871 88.729 0.888921C88.7457 0.775588 88.772 0.673921 88.8081 0.583921C88.8493 0.473729 88.913 0.373285 88.9951 0.288921C89.0829 0.203715 89.1879 0.138254 89.3031 0.0969209C89.4724 0.0322543 89.6814 -7.90784e-05 89.9301 -7.90784e-05H107.882C107.994 -0.000653276 108.106 0.00703422 108.217 0.0229209C108.33 0.0395876 108.432 0.0659209 108.523 0.101921C108.633 0.143336 108.733 0.207 108.817 0.288921C108.903 0.376646 108.968 0.481663 109.01 0.596921C109.074 0.766254 109.106 0.975254 109.106 1.22392V5.33792C109.107 5.45 109.099 5.56197 109.083 5.67292C109.066 5.78625 109.04 5.88825 109.005 5.97892C108.963 6.08884 108.899 6.18894 108.817 6.27292C108.73 6.35837 108.625 6.42417 108.51 6.46592C108.341 6.52992 108.131 6.56192 107.882 6.56192H102.884V23.2559C102.885 23.368 102.877 23.48 102.861 23.5909C102.844 23.7043 102.818 23.8063 102.783 23.8969C102.741 24.0068 102.677 24.1069 102.595 24.1909C102.508 24.2764 102.403 24.3422 102.288 24.3839C102.119 24.4479 101.909 24.4799 101.66 24.4799ZM196.35 24.4799H184.892C184.78 24.4805 184.668 24.4728 184.557 24.4569C184.444 24.4403 184.342 24.4143 184.252 24.3789C184.142 24.3373 184.041 24.2733 183.957 24.1909C183.872 24.1034 183.807 23.9987 183.765 23.8839C183.7 23.7146 183.668 23.5053 183.668 23.2559V1.22392C183.667 1.11184 183.675 0.999871 183.691 0.888921C183.708 0.775588 183.734 0.673921 183.77 0.583921C183.811 0.473729 183.875 0.373285 183.957 0.288921C184.045 0.203715 184.15 0.138254 184.265 0.0969209C184.434 0.0322543 184.643 -7.90784e-05 184.892 -7.90784e-05H196.35C197.091 -0.0033413 197.832 0.0417545 198.567 0.134921C200.278 0.359588 201.624 0.866921 202.605 1.65692C202.622 1.67114 202.64 1.68548 202.657 1.69992C203.486 2.39472 204.085 3.32416 204.375 4.36592C204.552 4.95659 204.659 5.60859 204.698 6.32192C204.709 6.52641 204.714 6.73115 204.714 6.93592V17.5439C204.719 18.2183 204.654 18.8913 204.518 19.5519C204.226 20.9206 203.606 21.9966 202.657 22.7799C202.065 23.257 201.392 23.6244 200.67 23.8649C199.495 24.2749 198.055 24.4799 196.35 24.4799ZM195.432 6.49392H191.386V18.0539H195.432C195.582 18.0549 195.731 18.0428 195.879 18.0179C196.04 17.9899 196.184 17.9449 196.311 17.8829C196.434 17.824 196.545 17.7437 196.639 17.6459C196.9 17.3739 197.03 16.9546 197.03 16.3879V8.12592C197.031 7.97802 197.02 7.83026 196.999 7.68392C196.946 7.33859 196.826 7.07225 196.639 6.88492C196.51 6.75841 196.354 6.6627 196.182 6.60492C196.057 6.56092 195.919 6.53025 195.766 6.51292C195.655 6.50011 195.544 6.49377 195.432 6.49392ZM142.46 7.13992L140.862 12.3079H146.2L144.602 7.13992C144.576 7.08065 144.547 7.02259 144.516 6.96592C144.453 6.85325 144.388 6.76592 144.32 6.70392C144.318 6.7019 144.315 6.6999 144.313 6.69792C144.211 6.60725 144.092 6.56192 143.956 6.56192H143.106C142.97 6.56192 142.851 6.60725 142.749 6.69792C142.649 6.78659 142.555 6.92992 142.466 7.12792C142.464 7.13192 142.462 7.13592 142.46 7.13992ZM168.64 6.11992H166.09V10.4719H168.64C168.776 10.4727 168.912 10.463 169.046 10.4429C169.405 10.3876 169.662 10.2509 169.817 10.0329C169.821 10.0263 169.826 10.0196 169.83 10.0129C169.955 9.82359 170.041 9.61208 170.086 9.38992C170.121 9.22012 170.137 9.04719 170.136 8.87392V7.71792C170.137 7.54465 170.121 7.37173 170.086 7.20192C170.041 6.97976 169.955 6.76825 169.83 6.57892C169.678 6.35092 169.419 6.20792 169.052 6.14992C168.916 6.1292 168.778 6.11917 168.64 6.11992Z" fill="white" stroke="white" stroke-width="0.944882" stroke-linecap="round"/>
</g>
<defs>
<clipPath id="clip0_99_765">
<rect width="204.715" height="24.48" fill="white"/>
</clipPath>
</defs>
</svg>
