<svg width="20" height="20" viewBox="0 0 20 20" fill="none" xmlns="http://www.w3.org/2000/svg">
<g clip-path="url(#clip0_4_52)">
<path d="M7.62753 4.50666C8.68337 2.61333 9.21087 1.66666 10 1.66666C10.7892 1.66666 11.3167 2.61333 12.3725 4.50666L12.6459 4.99666C12.9459 5.535 13.0959 5.80416 13.3292 5.98166C13.5625 6.15916 13.8542 6.225 14.4375 6.35666L14.9675 6.47666C17.0175 6.94083 18.0417 7.1725 18.2859 7.95666C18.5292 8.74 17.8309 9.5575 16.4334 11.1917L16.0717 11.6142C15.675 12.0783 15.4759 12.3108 15.3867 12.5975C15.2975 12.885 15.3275 13.195 15.3875 13.8142L15.4425 14.3783C15.6534 16.5592 15.7592 17.6492 15.1209 18.1333C14.4825 18.6183 13.5225 18.1758 11.6042 17.2925L11.1067 17.0642C10.5617 16.8125 10.2892 16.6875 10 16.6875C9.71087 16.6875 9.43837 16.8125 8.89253 17.0642L8.3967 17.2925C6.47753 18.1758 5.51753 18.6175 4.88003 18.1342C4.24087 17.6492 4.3467 16.5592 4.55753 14.3783L4.61253 13.815C4.67253 13.195 4.70253 12.885 4.61253 12.5983C4.5242 12.3108 4.32503 12.0783 3.92837 11.615L3.5667 11.1917C2.1692 9.55833 1.47087 8.74083 1.7142 7.95666C1.95837 7.1725 2.98337 6.94 5.03337 6.47666L5.56337 6.35666C6.14587 6.225 6.4367 6.15916 6.67087 5.98166C6.9042 5.80416 7.0542 5.535 7.3542 4.99666L7.62753 4.50666Z" stroke="#252525" stroke-width="1.5"/>
</g>
<defs>
<clipPath id="clip0_4_52">
<rect width="20" height="20" fill="white"/>
</clipPath>
</defs>
</svg>
