<svg width="65" height="65" viewBox="0 0 65 65" fill="none" xmlns="http://www.w3.org/2000/svg">
<path d="M32.3333 0.333496C14.6885 0.333496 0.333252 14.6887 0.333252 32.3335C0.333252 49.9783 14.6885 64.3335 32.3333 64.3335C49.9781 64.3335 64.3333 49.9783 64.3333 32.3335C64.3333 14.6887 49.9781 0.333496 32.3333 0.333496ZM32.3333 57.9335C18.2181 57.9335 6.73325 46.4487 6.73325 32.3335C6.73325 18.2183 18.2181 6.7335 32.3333 6.7335C46.4485 6.7335 57.9333 18.2183 57.9333 32.3335C57.9333 46.4487 46.4485 57.9335 32.3333 57.9335Z" fill="#44C441"/>
<path d="M27.7538 36.9512L20.4722 29.6027L16 34.1367L27.7601 46L49 24.5276L44.5215 20L27.7538 36.9512Z" fill="#44C441"/>
</svg>
